<?xml version="1.0" encoding="UTF-8"?>
<svg id="Layer_1" data-name="Layer 1" xmlns="http://www.w3.org/2000/svg" viewBox="0 0 381.97 353.65">
  <path d="M76.38,308.15c1.13,5.37,4.01,10.66,5.58,16,1.56,4.61-3.54,8.07-7.73,6.99-3.6-.58-5.19-3.73-6.3-6.82-.83-1.86-4.42-2.24-5.74-.57-1.14,1.68-1.34,4.53-2.71,5.93-2.17,2.28-6.47,2.05-9.1.42-2.63-1.75-2.75-5.34-1.46-8.04,3.15-8.09,6.36-16.13,9.59-24.18.64-1.59,1.69-2.64,3.17-3.61,1.36-.81.92-2.18.05-3.22-2.33-2.94-4.69-5.77-7.06-8.69-1.02-1.32-2.53-2.08-4.17-2.24-10.53-.54-20.86-2.29-31.14-4.49-8.02-1.32-16.65-3.86-18.68-12.52-3.07-9.26,4.82-20.72,14.62-20.83,5.02.03,10.08,1.84,15.06,2.72,1.43.38,2.45-.1,2.12-1.79-1.25-4.74-3.95-8.96-4.69-13.86-.2-.81-.84-1.3-1.6-1.55-5.07-1.58-10.33-2.17-15.4-3.79-11.2-3.12-13.97-19.69-5.05-26.99,3.26-2.84,7.49-5.05,11.87-4.35,2,.34,2.35-.99,2.22-2.68-.12-6.03-.14-11.88-.11-17.76-.08-3.7-4.54-2.6-6.87-3.94-5.36-2.54-7.76-7.19-8.85-12.83-6.06-28.01,9.16-59.67,37.14-68.75,1.62-.56,3.18-1.13,4.36-2.44,11.7-17.49,24.97-33.39,41.55-46.34C136.65-2.09,208.26-11.07,266.65,13.98c13.64,6.06,27.01,13.38,38.51,22.78.93.58,2.32-.17,3.14-.85,12.95-14.48,35.36-18.76,51.91-8.08,17.38,11.41,22.43,34.03,21.69,53.7-.55,13.88-3.91,27.5-9.06,40.45-1.1,3.51-4.35,6.61-4.12,10.44,4.21,19.34,6.58,39.24,4.79,59.05.12,1.35.87,2.49,1.7,3.54,6.68,8.39,8,18.78,5.65,28.39-2.75,12.02-11.46,21.55-21.79,27.7-2.14,1.31-3,3.62-4.04,5.76-6.88,14.14-16.06,26.69-26.45,38.38-2.15,1.88-2.64,4.6-2.05,7.24.12.93.16,1.98.96,2.32.75.29,1.63.25,2.36-.06,1.79-1.16,1.04-4.35,1.81-6.24.84-5.8,9.19-5.77,11.78-2.14.94,1.33,1.09,3.13,1.14,4.94.04,7.52.02,14.91-.01,22.39.05,2.14-.36,4.63-2.05,6.05-6.93,4.39-12.17-.73-11.45-8.27.09-2.11-.41-3.89-2.88-3.47-2.84.51-1.28,6.16-2.16,8.49-.88,4.31-4.37,5.07-7.78,4.71-3.1-.25-5.07-3.05-5.18-6.46-.1-3.71-.06-7.4-.03-11.1-.02-3.4-2.22-1.59-3.59-.18-49.21,41.56-121.4,51.5-180.66,26.81-6.1-2.37-11.8-5.56-17.63-8.54-3.02-1.03-7.06.17-9.26-2.83-1.39-2.41-3-4.86-5.45-6.37-5.68-4.07-11.5-8.15-16.52-13.03-.94-.75-2.21-1.93-3.47-1.46l-.07.08ZM271.14,148.19c11.51,11.44,24.61,17.54,40.89,16.56,3.92-.16,7.93-.28,11.66-1.58,23.33-7.87,39.6-28.81,47.5-51.33,5.95-18.7,8.22-41.97.88-60.55-5.2-13.52-16.23-24.11-31.29-24.26-25.25-1.69-39.59,23.17-42.12,45.7-2.81,22.18-2.79,44.7-.76,66.94,0,1.86-2.12.23-2.98-.15-6.54-3.76-9.83-9.76-11.65-16.53-2.11-7.47-1.85-15.02-1.87-22.56.03-2.64-.4-5.55-1.98-7.65-3.14-4.44-11.05-5.62-15.45-2.1-3.07,2.18-4.56,6.14-4.47,9.92-.26,11.82,1.12,25.65-7.06,35.46-9.02,9.62-24.03,8.37-35.19,3.79-1.41-.5-3.14-1.45-2.42-3.2,3.87-11.72,5.91-23.76,5.92-36.09.27-4.46-1.6-9.05-5.92-10.82-6.5-2.97-14.32.01-15.63,7.52.47,74.4-73.72,107.12-138.9,106.22-13.06,0-25.94-1.52-38.67-4.54-2.07-.55-4.63-.98-6.81-.68-9.03.56-13.13,15.83-4.08,20.05,61.59,18.58,150.9.87,189.77-53.73,4.21-6.23,4.12-5.97,11.05-3.45,21.29,7.84,44.68,5.01,59.48-12.92h.12ZM318.89,180.03c-18.78.34-35.98,4.01-51.47,12.96-5.34,3.17-5.54,10.89-1.52,15.31,12.69,14.09,20.62-13.95,73.35-4.36,6.9.99,17.18,5.21,15.65,13.7-1.57,6.09-8.1,9.43-13.37,11.99-31.49,12.15-65.46,6.17-89.84-17.67-15.32-14.61-36.45-21.17-56.7-13.66-6.22,2.3-11.69,6.27-16.69,10.59-16.7,15.38-35.31,27.67-57.11,34.42-32.39,11.18-67.55,13.25-100.72,4.92-2.72-.65-5.72-1.42-8.33-.27-3.8,2.16-6.66,6.04-6.77,10.52-.01,9.93,8.39,10.87,16.02,12.38,3.69.79,7.38,1.59,11.12,2.2,47.21,7.31,97.3-2.91,137.19-28.98,13.92-8.73,25.76-26.42,43.47-26.84,9.33-.19,17.91,5.38,24.81,11.73,24.88,24.15,61.75,33.55,95.57,26.16,12.79-2.65,25.5-8.13,34.34-18.01,8.06-9.15,11.42-22.2,6.4-33.5-8.33-19.08-36.8-23.17-55.21-23.6h-.18ZM112.11,142.11c-9.32-.94-16.52-8.08-19.06-17.17-1.62-5.31-2-10.77-1.92-16.26.29-7.64,1.47-13.51-7.37-16.45-18.44-7.52-39.5-4.99-55.19,7.26-17.26,12.64-23.14,35.93-19.33,56.37,2.31,9.75,14.09,11.75,20.03,3.74,2.37-2.9,2.03-7.96,1.16-11.85-1.56-10.53,1.41-21.5,8.79-28.69,6.34-6.26,15.55-9.71,26.32-8.89,2.72.08,3.91,1.13,3.88,3.67.97,17.51,7.85,36,23.76,44.81,27.77,16.17,63.86,1,79.54-24.2,13.6-21.9,15.93-52-2.68-71.88-16.77-16.88-45.9-12.9-57.62,8.02-9.57,16.16-8.4,34.51-5.25,52.17,1.26,6.29,3.05,12.41,5.01,18.61.08.3.1.54,0,.67l-.07.07ZM259.2,265.79c.08-9.11-13.24-12.19-16.97-3.59-2.45,5.8.8,12.79,7.12,13.18,6.43.84,9.57-3.79,9.84-9.41v-.18ZM211.95,265.63c.24-6.04-5.41-9.83-10.97-9.15-3.21.53-6.43,4.6-6.71,8.6-.94,12.45,17.66,13.41,17.69.74v-.19ZM217.87,266.21c-.26,6.91,5.34,10.11,11.42,8.62,8.1-1.95,8.45-14.98.52-17.43-5.99-2.08-12.14,2.09-11.94,8.62v.2ZM146.02,45.46c13.21-1.33,9.32-22.44-4.1-17.68-9.11,3.68-6.2,18.36,3.92,17.69h.18ZM112.68,299.14c-1.99-.14-4.13-.2-6.13,0-1.04.24-1.03,1.52-1.03,2.4.15,7.72-.22,15.48.17,23.18.2,1.11,2.09,1.2,2.39.15.16-.48.15-1.09.16-1.67,0-1.29,0-2.43.02-3.76.07-5.45.74-6.05,6.15-5.82,1.67.1,3.57.02,5.02.79,3.14,1.76,1.74,6.86,2.67,9.94.15.85.8,1.41,1.64,1.32.73-.05,1.08-.68.93-1.37-.36-1.74-.27-3.57-.33-5.37-.01-2.13-.68-3.85-2.04-5.52-.44-.67-.26-1.26.35-1.76,4.51-3.32,2.92-11.53-2.71-12.23-2.25-.45-4.94-.1-7.11-.27l-.15-.02ZM200.79,312.42c.03,3.48.07,6.95,0,10.36-.08,1.29.04,3,1.7,3.06,5.28.05,10.6.19,15.82-.05,1.48-.56.74-2.23-.73-2.09-3.69-.04-7.38-.03-11.04-.02-1.66.01-2.49.01-2.78-.64-.4-1.01-.2-3.19-.26-4.53,0-3.97.07-6.51,5.24-5.5,2.18.27,7.34,1.78,8.38-.9-.07-1.57-2.4-1-3.49-1.12-1.9-.02-3.59,0-5.47-.02-4.42-.06-4.94-.63-4.79-4.96.09-1.32-.06-3.03.73-4.05.69-.82,1.99-.75,3-.73,3.44.12,6.87.02,10.27,0,1.6.1,1.66-2.22.06-2.16-4.86.13-9.78.09-14.64-.03-1.89.11-2.51,1.9-2.24,3.53.38,3.26.05,6.53.25,9.69v.18ZM265.16,312.1c-.37,5.53,2.06,11.8,6.56,13.53,5.48,2.34,10.86.9,15.07-3.99,1.06-.88,2.03-4.58-.13-4.4-1.66.25-1.57,2.33-2.53,3.42-1.56,2.62-4.6,3.95-7.61,3.76-4.79-.2-8.08-3.72-8.67-9.66-.81-5.32,1.35-12.27,5.97-13.75,4.43-1.54,9.38.03,11.3,4.7.55,1.25,2.28,1.41,2.7.04-.78-3.67-3.78-6.88-7.73-7.24-8.78-.98-15.09,3.32-14.94,13.4v.2ZM318.2,312.39c.02,3.82,0,7.72.01,11.54-.03.9.18,1.96,1.31,1.92,1.03.02,1.36-.87,1.35-1.73.05-3.13-.02-6.29,0-9.45-.04-1.48,1.07-2.1,2.44-2.02,3.37.05,6.62.1,9.95.02,1.69-.13,3.52.09,3.41,2.21-.03,3.16-.07,6.34,0,9.47-.1,1.13,1.03,1.94,2,1.28.53-.39.55-1.23.56-1.88-.02-7.61-.01-15.2-.05-22.8.03-.86-.33-1.84-1.35-1.79-1.25.06-1.16,1.52-1.31,2.46-.31,2.03-.46,4.06-.6,6.09-.12,1.09-.27,2.15-1.34,2.49-1.62.43-3.52.2-5.21.27-3.3-.01-7.57,1.19-8.63-1.99-.49-2.5.46-5.38.12-7.86.05-1.07-.78-1.63-1.79-1.33-1.27.4-.8,1.86-.85,2.87-.04,3.31-.03,6.75-.01,10.08v.16ZM53.62,323.84c-.1.79-.05,1.34.24,1.97,2.13,2.88,3.93-6.14,5-7.29.54-.8,1.59-.85,2.5-.85,3.36.05,6.99-.69,9.96.72,2.15,1.24,1.41,7.74,4.49,7.49,1.6-.42.58-1.89.18-2.9-2.63-7-5.32-14.03-8.05-21-.32-.77-.51-1.58-.98-2.25-.62-1.03-2.7-.99-3.34-.03-3.19,6.62-5.11,13.77-8.5,20.38-.54,1.12-1.17,2.47-1.48,3.61l-.03.15ZM155.08,312.41c.06,3.85,0,7.75.03,11.62-.09,1.21.8,2.2,2.01,1.61.5-.27.61-.83.65-1.37.09-2.97-.13-5.92.13-8.91.12-1.98,1.41-2.69,3.25-2.24,2.84.79,5.76.94,8.65.65,1.07-.14,1.81-1.63.97-2.43-.27-.23-.64-.3-1-.33-2.44-.1-4.73-.01-7.15-.07-4.07-.08-4.97-.53-4.99-3.83.11-1.64-.21-3.75.63-5.2.63-.83,1.88-.72,2.83-.73,3.57-.03,7.22.23,10.74-.14,1.1-.64.45-2.17-.81-2.01-4.42-.01-8.91.02-13.37-.05-2.11-.13-2.74.92-2.6,2.89.07,3.47,0,6.92.03,10.36v.16Z" style="fill: #513a94; stroke-width: 0px;"/>
  <path d="M16.68,292.75c4.96.53,9.63,2.21,11.98,6.19.85,1.33,1.42,3.21,1.8,5,.17.63.28,1.23.02,1.85-2.73,5.46,2.63,11.47.38,17.07-2.96,9.35-15.67,10.75-23.37,6.74-5.63-3.05-7.56-9.79-4.48-15.08.77-1.2.73-2.16.19-3.45-4.19-10.81,3.28-17.84,13.28-18.32h.19ZM16.22,326.55c6.05.42,11.08-3.5,9.8-9.58-.38-2.87-3.95-4.97-7.29-5.72-3.75-.88-10.87-2.09-8.58-7.54,2.56-5.06,11.08-3.87,12.65,1.41.32,1,1.42,1.24,2.15.56.76-.77.09-1.88-.25-2.73-1.54-3.63-5.15-4.85-8.96-4.64-8.18-.41-12.46,10-4.12,13.58,1.38.69,2.75,1.44,4.3,1.79,1.25.32,2.56.07,3.69.63,2.15,1.04,4.36,3.44,3.63,5.91-.51,3.22-4.48,4.52-7.76,4.15-3.14-.08-5.11-2.58-6.47-5.54-.44-.94-1.75-1.02-2.24-.14-.62,4.72,4.11,7.88,9.25,7.84h.2Z" style="fill: #513a94; stroke-width: 0px;"/>
  <path d="M365.96,311.85c.05-3.91-.03-7.84.03-11.77-.14-3.06,1.47-5.72,4.87-6.08,2.47-.35,5.86.26,6.97,1.85.77.9,1.07,2.27,1.09,3.5.09,8.7.09,17.25,0,25.94.29,5.11-4.88,6.94-9.09,5.66-4.32-1.21-3.98-6.04-3.92-9.66.01-3.09-.03-6.23.04-9.28v-.16ZM371.28,298.8c-.12.12-.16.32-.17.58.11,8.55-.22,17.09.12,25.57.22,1.16,2.14,1.12,2.4.03.1-.29.12-.62.13-.96,0-7.75.01-15.5-.06-23.25.12-1.3-1.1-2.31-2.33-2.04l-.11.08Z" style="fill: #513a94; stroke-width: 0px;"/>
  <path d="M271.01,148.19c-14.81,17.93-38.19,20.76-59.48,12.92-6.99-2.57-6.87-2.69-11.04,3.45-38.82,54.57-128.2,72.32-189.77,53.73-9.04-4.23-4.95-19.49,4.09-20.06,2.17-.3,4.72.14,6.81.68,12.72,3.02,25.6,4.53,38.67,4.54,65.23.88,139.35-31.82,138.9-106.22,1.32-7.5,9.13-10.5,15.63-7.52,3.77,1.6,5.85,5.33,5.9,9.37.19,12.81-1.89,25.37-5.9,37.54-.71,1.75,1,2.71,2.42,3.2,11.15,4.58,26.18,5.84,35.19-3.79,8.18-9.81,6.8-23.63,7.06-35.46-.29-5.81,3.74-11.44,9.71-11.94,7.31-.7,12.75,4.55,12.2,11.78.03,7.54-.24,15.09,1.87,22.56,1.81,6.77,5.1,12.77,11.65,16.53.98.41,2.93,2,2.98.15-2.03-22.24-2.05-44.76.76-66.94,2.51-22.49,16.91-47.41,42.13-45.7,15.06.15,26.1,10.72,31.29,24.26,7.36,18.61,5.07,41.83-.87,60.55-7.9,22.52-24.16,43.46-47.5,51.33-3.73,1.3-7.75,1.41-11.66,1.58-16.31.97-29.36-5.11-40.89-16.56h-.12ZM318.36,110.42c-.13,6.87-.01,15.76,1.08,24.68.2,1.48.39,3.57,1.69,4.39,1.29.85,3.68-.44,4.94-1.22,8.3-4.94,14.34-12.03,18.95-20.48,7.24-13.97,10.85-30.36,9.24-46.04-1.51-12.57-7.86-30.05-23.32-20.06-13.62,11.43-11.83,40.87-12.57,58.54v.18Z" style="fill: #f9f8f9; stroke-width: 0px;"/>
  <path d="M319.07,180.03c18.41.42,46.91,4.52,55.21,23.6,6.14,13.72-.29,29.78-11.83,38.65-8.34,6.79-18.49,10.68-28.91,12.86-33.82,7.39-70.69-2-95.57-26.16-6.9-6.35-15.47-11.91-24.81-11.73-10.19.07-20.88,7.56-28.23,14.66-18.63,17.51-41.72,27.89-66.16,35.27-30.46,9.78-66.12,10.61-97.39,3.69-6.75-1.43-15.17-2.11-15.96-10.91-.58-4.98,2.48-9.61,6.71-11.99,2.61-1.15,5.62-.38,8.33.27,33.17,8.33,68.32,6.26,100.72-4.92,21.82-6.76,40.4-19.03,57.11-34.42,5-4.33,10.47-8.29,16.69-10.59,20.25-7.5,41.38-.95,56.7,13.66,24.37,23.84,58.36,29.81,89.84,17.67,7.32-3.07,18.59-10.95,11.18-19.49-3.62-3.85-8.47-5.31-13.46-6.2-20.67-3.68-40.77-2.6-59.87,7.27-4.67,2.58-10.06,1.13-13.48-2.91-4.02-4.42-3.81-12.14,1.52-15.31,15.48-8.96,32.69-12.62,51.47-12.96h.18Z" style="fill: #f9f8f9; stroke-width: 0px;"/>
  <path d="M112.18,142.04c.1-.13.08-.37,0-.67-1.96-6.2-3.75-12.31-5.01-18.61-3.15-17.66-4.32-36,5.25-52.17,11.8-20.94,40.78-24.91,57.62-8.02,18.6,19.89,16.28,49.98,2.68,71.88-15.68,25.2-51.77,40.37-79.54,24.2-15.91-8.8-22.79-27.3-23.76-44.81.04-2.53-1.18-3.6-3.88-3.67-10.77-.82-19.98,2.63-26.32,8.89-7.38,7.19-10.36,18.15-8.79,28.69.89,3.88,1.2,8.95-1.16,11.85-5.89,7.98-17.74,6.01-20.03-3.74-3.81-20.44,2.07-43.73,19.33-56.37,15.7-12.25,36.75-14.78,55.19-7.26,8.85,2.96,7.65,8.78,7.37,16.45-.09,5.5.29,10.95,1.92,16.26,2.54,9.09,9.74,16.23,19.06,17.17l.07-.07ZM127.04,101.75c.36,11.56,2.75,23,6.34,34.24,1,3.56,2.51,3.34,5.38,1.61,12.81-7.21,19.38-19.26,22.24-32.9,1.04-5.52.33-11.08-.71-16.6-1.03-5.62-5.63-11.34-10.76-13.57-6.73-2.54-15.05,1.06-18.49,7.32-3.13,5.85-3.88,12.41-4.01,19.72v.18Z" style="fill: #f9f8f9; stroke-width: 0px;"/>
  <path d="M259.19,265.97c-.26,5.62-3.4,10.25-9.84,9.41-6.32-.39-9.58-7.39-7.12-13.19,3.73-8.6,17.05-5.52,16.97,3.6v.18Z" style="fill: #f9f8f9; stroke-width: 0px;"/>
  <path d="M211.95,265.82c-.03,12.67-18.62,11.71-17.69-.74.28-4,3.51-8.08,6.71-8.6,5.56-.68,11.22,3.11,10.97,9.15v.19Z" style="fill: #f9f8f9; stroke-width: 0px;"/>
  <path d="M217.87,266.01c-.21-6.53,5.95-10.7,11.94-8.62,7.93,2.46,7.58,15.49-.52,17.43-6.08,1.49-11.68-1.71-11.42-8.62v-.2Z" style="fill: #f9f8f9; stroke-width: 0px;"/>
  <path d="M145.84,45.46c-10.11.67-13.03-14.01-3.92-17.69,13.43-4.75,17.31,16.36,4.1,17.68h-.18Z" style="fill: #f9f8f9; stroke-width: 0px;"/>
  <path d="M112.84,299.16c2.18.17,4.86-.18,7.11.27,5.63.7,7.22,8.91,2.71,12.23-.91.67-.62,1.52,0,2.27,2.53,2.88,1.28,6.97,2.01,10.38.31,1.22-1.09,1.74-1.96,1.11-.33-.23-.51-.62-.62-1.07-1.24-6.52,1.16-10.91-7.69-10.72-7.12-.64-5.98,2.48-6.16,8.25-.12,1.11.37,2.99-.7,3.6-1.28.53-2.06-.48-1.99-1.71-.03-7.42,0-14.81-.04-22.23-.08-1.13.19-2.56,1.59-2.49,1.87,0,3.73-.11,5.57.08l.15.02ZM113.74,311.5c2.37-.13,5.7.19,7.44-1.68,2.8-3.13,1.42-8.27-3.3-8.43-2.68-.24-5.45-.09-8.07-.11-1.95-.16-1.53,1.85-1.56,3.31.02,1.34-.04,2.75.04,4.09-.07,2.97,2.25,2.78,5.31,2.81h.15Z" style="fill: #f9f8f9; stroke-width: 0px;"/>
  <path d="M200.79,312.25c-.2-3.17.13-6.43-.25-9.69-.26-1.62.35-3.42,2.24-3.53.34-.05.75-.04,1.09-.04,4.7.49,9.56-.2,14.22.22.66.32.68,1.58-.05,1.87-.37.17-.83.15-1.25.15-3.21,0-6.45.12-9.7,0-1.01-.02-2.3-.09-3,.73-.79,1.03-.64,2.74-.73,4.05-.15,4.32.37,4.9,4.79,4.96,2.06.02,3.99,0,6.06.02,1,.06,2.83-.29,2.89,1.12-1.27,3.05-7.49.72-10.01.73-3.55-.48-3.64,2.67-3.6,5.68.08,1.5-.19,3.16.26,4.53.3.65,1.12.65,2.78.64,3.66,0,7.35-.01,11.04.02,1.48-.13,2.21,1.53.73,2.09-5.22.25-10.55.1-15.82.05-1.65-.07-1.78-1.76-1.7-3.06.08-3.41.04-6.88,0-10.36v-.18Z" style="fill: #f9f8f9; stroke-width: 0px;"/>
  <path d="M265.16,311.91c-.15-10.08,6.15-14.38,14.94-13.4,3.95.36,6.95,3.58,7.73,7.24-.26,1.07-1.76,1.3-2.37.43-2.42-4.99-6.39-6.77-11.63-5.16-4.62,1.48-6.79,8.43-5.97,13.75.58,5.94,3.88,9.46,8.67,9.66,3,.19,6.05-1.14,7.61-3.76.99-1.16,1.03-3.8,3.06-3.38.89.26.73,1.35.69,2.19-.09.82-.54,1.54-1.09,2.17-4.21,4.89-9.59,6.34-15.07,3.99-4.49-1.73-6.93-8-6.56-13.53v-.2Z" style="fill: #f9f8f9; stroke-width: 0px;"/>
  <path d="M318.2,312.24c-.02-3.33-.03-6.77.01-10.08.04-1.02-.42-2.47.85-2.87,2.54-.62,1.71,2.71,1.8,4.32-1.66,9.05,3.31,6.77,10.18,6.86,3.75-.01,4.91.19,4.98-4.13.06-1.58.29-3.15.49-4.72.14-.95.11-2.12.96-2.4,1.12-.34,1.77.71,1.69,1.73.04,7.6.04,15.2.05,22.8.12,1.32-.64,2.7-2.07,1.87-.4-.3-.46-.79-.49-1.27-.07-3.13-.03-6.31,0-9.47.1-2.13-1.71-2.34-3.41-2.21-3.33.09-6.58.03-9.95-.02-1.36-.08-2.48.54-2.44,2.02-.01,3.16.05,6.32,0,9.45.02.86-.32,1.75-1.35,1.73-1.13.04-1.35-1.02-1.31-1.92-.02-3.82,0-7.72-.01-11.54v-.16Z" style="fill: #f9f8f9; stroke-width: 0px;"/>
  <path d="M53.65,323.69c.31-1.13.94-2.49,1.48-3.61,3.39-6.61,5.31-13.77,8.5-20.38.64-.95,2.72-1.01,3.34.03.47.67.66,1.48.98,2.25,2.72,6.97,5.41,14,8.05,21,.46,1.09,1.45,2.67-.35,2.93-2.92-.15-2.18-6.23-4.32-7.52-2.97-1.41-6.59-.67-9.96-.72-.9,0-1.96.05-2.5.85-.98,1.78-1.51,3.79-2.36,5.62-.35.8-.69,1.85-1.42,2.15-1.39.43-1.62-1.47-1.46-2.45l.03-.15ZM65.12,301.75c-1.7,4.28-2.98,8.11-4.27,11.64-.18.56-.53,1.59.27,1.8,2.55.3,5.23.17,7.81.16,1.13.07,1.03-1.05.74-1.83-1.38-3.59-2.71-7.44-4.49-11.77h-.06Z" style="fill: #f9f8f9; stroke-width: 0px;"/>
  <path d="M155.07,312.26c-.03-3.44.05-6.9-.03-10.36-.13-1.96.48-3.03,2.6-2.89,4.45.07,8.94.03,13.36.05,1.26-.13,1.93,1.34.81,2.01-3.45.37-7.2.11-10.74.14-.95,0-2.2-.1-2.83.73-.84,1.44-.52,3.56-.63,5.2.03,3.3.92,3.74,4.99,3.83,2.41.06,4.71-.03,7.15.07.36.03.73.1,1,.33.84.8.1,2.29-.97,2.43-2.89.28-5.81.14-8.65-.65-1.84-.46-3.14.27-3.25,2.24-.26,2.99-.04,5.95-.13,8.91-.04.53-.15,1.1-.65,1.37-1.18.58-2.12-.4-2.01-1.61-.03-3.87.03-7.77-.03-11.62v-.16Z" style="fill: #f9f8f9; stroke-width: 0px;"/>
  <path d="M16.02,326.55c-5.14.04-9.87-3.12-9.25-7.84.49-.89,1.8-.8,2.24.14,1.37,2.96,3.32,5.46,6.47,5.54,3.28.37,7.25-.92,7.76-4.15.68-2.45-1.28-4.57-3.26-5.73-1.27-.76-2.69-.49-4.06-.81-2.73-.9-5.77-2.03-7.64-4.29-3.63-5.39,1.62-11.43,7.46-11.08,3.81-.21,7.41,1,8.96,4.64.29.67.68,1.43.58,2.14-.12.82-1.37,1.3-1.97.77-.95-1.25-1.32-3.06-2.78-3.92-3.38-2.58-9.73-1.77-10.73,2.88-.86,8.06,14.78,4.05,16.23,12.14,1.28,6.08-3.75,10.01-9.8,9.58h-.2Z" style="fill: #f9f8f9; stroke-width: 0px;"/>
  <path d="M371.39,298.72c1.21-.26,2.44.69,2.33,2.04.07,7.75.06,15.5.06,23.25,0,.33-.04.67-.13.96-.27,1.09-2.19,1.14-2.4-.03-.35-8.48-.01-17.02-.13-25.57,0-.25.04-.46.17-.58l.11-.08Z" style="fill: #f9f8f9; stroke-width: 0px;"/>
  <path d="M318.37,110.25c.73-17.67-1.06-47.09,12.57-58.54,15.46-9.98,21.81,7.46,23.32,20.06,1.61,15.68-2,32.07-9.24,46.04-4.61,8.45-10.66,15.54-18.95,20.48-1.26.78-3.65,2.07-4.94,1.22-1.3-.82-1.49-2.91-1.69-4.39-1.1-8.92-1.21-17.82-1.08-24.68v-.18ZM348.39,84.04c.93-8.7,1.12-17.7-3.52-25.65-3.62-7.61-10.64-4.49-14.07,1.37-.3.69.08,1.34.53,1.86,6.09,7.06,11.74,14.64,17,22.44h.05Z" style="fill: #513a94; stroke-width: 0px;"/>
  <path d="M127.04,101.56c.14-7.32.88-13.87,4.01-19.72,3.43-6.27,11.76-9.86,18.49-7.32,5.12,2.23,9.72,7.95,10.76,13.57,1.04,5.52,1.75,11.09.71,16.6-2.85,13.64-9.43,25.69-22.24,32.9-2.81,1.67-4.36,2.03-5.38-1.61-3.59-11.24-5.98-22.68-6.34-34.24v-.18Z" style="fill: #513a94; stroke-width: 0px;"/>
  <path d="M113.59,311.5c-3.66-.09-5.61.37-5.35-4.25.01-1.43-.01-2.81,0-4.21.03-.89.14-1.34.54-1.56.55-.36,3.03-.16,4.12-.21,3.32-.02,8.93-.51,9.61,3.75.64,5.98-4.02,6.57-8.78,6.48h-.15Z" style="fill: #513a94; stroke-width: 0px;"/>
  <path d="M65.18,301.75c1.59,4.05,3.34,8.38,4.66,12.48.07.48-.01.98-.54,1.07-1.36.11-2.82.06-4.2.08-1.33-.03-2.71,0-3.99-.19-.47-.12-.56-.53-.48-1,1.24-3.98,2.71-7.8,4.48-12.44h.06Z" style="fill: #513a94; stroke-width: 0px;"/>
</svg>