<svg width="24" height="24" viewBox="0 0 24 24" fill="none" xmlns="http://www.w3.org/2000/svg">
<path d="M20.6191 8.44878C20.1755 6.50918 19.0749 4.78259 17.504 3.56154C15.933 2.34049 13.9882 1.70007 11.9991 1.74878H11.9891C10.0013 1.6992 8.05742 2.33805 6.48657 3.55719C4.91572 4.77633 3.81442 6.50085 3.36912 8.43878C2.19912 13.5988 5.35912 17.9688 8.21912 20.7188C9.23077 21.7 10.5848 22.2488 11.9941 22.2488C13.4035 22.2488 14.7575 21.7 15.7691 20.7188C18.6291 17.9688 21.7891 13.6088 20.6191 8.44878ZM11.9991 13.4588C11.3761 13.4588 10.7671 13.274 10.2491 12.9279C9.73106 12.5818 9.32731 12.0898 9.0889 11.5142C8.85048 10.9386 8.7881 10.3053 8.90965 9.69424C9.03119 9.0832 9.3312 8.52193 9.77173 8.08139C10.2123 7.64085 10.7735 7.34085 11.3846 7.2193C11.9956 7.09776 12.629 7.16014 13.2046 7.39856C13.7802 7.63697 14.2721 8.04072 14.6182 8.55873C14.9644 9.07675 15.1491 9.68577 15.1491 10.3088C15.1491 11.1442 14.8172 11.9454 14.2265 12.5362C13.6358 13.1269 12.8346 13.4588 11.9991 13.4588Z" fill="#27272A"/>
</svg>
