<svg width="24" height="24" viewBox="0 0 24 24" fill="none" xmlns="http://www.w3.org/2000/svg">
<path d="M15.1209 10.3114C15.1209 10.9285 14.9379 11.5317 14.595 12.0448C14.2522 12.5579 13.7649 12.9578 13.1948 13.1939C12.6247 13.4301 11.9974 13.4918 11.3922 13.3715C10.787 13.2511 10.231 12.9539 9.79469 12.5176C9.35835 12.0812 9.0612 11.5253 8.94081 10.9201C8.82042 10.3149 8.88221 9.68754 9.11836 9.11743C9.3545 8.54733 9.7544 8.06005 10.2675 7.71722C10.7806 7.37439 11.3838 7.19141 12.0009 7.19141C12.8283 7.19141 13.6219 7.52012 14.207 8.10523C14.7921 8.69035 15.1209 9.48393 15.1209 10.3114Z" stroke="#27272A" stroke-width="1.5"/>
<path d="M3.61971 8.49C5.58971 -0.169998 18.4197 -0.159997 20.3797 8.5C21.5297 13.58 18.3697 17.88 15.5997 20.54C14.6318 21.4735 13.3395 21.9952 11.9947 21.9952C10.65 21.9952 9.35763 21.4735 8.38971 20.54C5.62971 17.88 2.46971 13.57 3.61971 8.49Z" stroke="#27272A" stroke-width="1.5"/>
</svg>
